<?xml version="1.0" encoding="utf-8"?>
<!-- Generator: Adobe Illustrator 17.0.0, SVG Export Plug-In . SVG Version: 6.00 Build 0)  -->
<!DOCTYPE svg PUBLIC "-//W3C//DTD SVG 1.1//EN" "http://www.w3.org/Graphics/SVG/1.1/DTD/svg11.dtd">
<svg version="1.1" id="Ebene_1" xmlns="http://www.w3.org/2000/svg" xmlns:xlink="http://www.w3.org/1999/xlink" x="0px" y="0px"
	 width="100px" height="100px" viewBox="0 0 100 100" enable-background="new 0 0 100 100" xml:space="preserve">
<g display="none">
	<path display="inline" fill="#F25F58" d="M83.079,65.444h-13.55c-5.531,4.475-12.267,7.11-19.531,7.11
		c-7.262,0-13.996-2.636-19.528-7.11H16.922c-5.588,0-10.16,4.57-10.16,10.159V97h86.476V75.604
		C93.236,70.015,88.664,65.444,83.079,65.444z"/>
	<path display="inline" fill="#F25F58" d="M49.997,3C35.131,3,23.078,15.771,23.078,33.443c0,17.673,12.053,32.001,26.919,32.001
		c14.871,0,26.923-14.328,26.923-32.001C76.92,15.772,64.868,3,49.997,3z"/>
</g>
<path display="none" fill="#F25F58" d="M94.077,79.619C88.979,91.841,77.026,93.983,73.12,93.983c-1.147,0-19.01,0.947-44.688-23.41
	C7.767,50.971,5.242,29.892,5.022,25.887C4.808,21.986,5.925,12.2,19.387,4.929c1.668-0.901,4.975-1.3,5.829-0.446
	c0.379,0.379,11.678,18.972,11.975,19.588c0.297,0.615,0.446,1.221,0.446,1.815c0,0.849-0.605,1.911-1.816,3.185
	c-1.21,1.274-2.526,2.442-3.949,3.503c-1.423,1.062-2.739,2.187-3.95,3.376c-1.21,1.188-1.815,2.166-1.815,2.93
	c0.082,1.983,1.707,9.086,14.086,19.963C52.574,69.723,58.538,72.788,59.111,73c0.574,0.212,1.051,0.317,1.433,0.317
	c0.765,0,1.742-0.604,2.931-1.814c1.188-1.211,5.185-6.689,6.459-7.9c1.274-1.209,2.336-1.814,3.186-1.814
	c0.594,0,1.199,0.148,1.814,0.445c0.616,0.297,19.233,11.191,19.589,11.555C95.489,74.779,94.807,77.869,94.077,79.619"/>
<path display="none" fill="#F25F58" d="M50,14L0,40.315L50,66.63l28.946-14.637c0,0,0,13.267,0,19.899
	c0,10.527,10.527,10.527,10.527,10.527v-5.263c0,0-5.263-0.301-5.263-5.265c0-7.895,0-22.861,0-22.861L100,40.315L50,14z"/>
<path display="none" fill="#F25F58" d="M26.315,61.367v10.526c0,2.615,1.711,6.118,5.263,7.895L50,87.682l15.789-7.895
	c3.553-1.776,8.143-5.292,7.895-7.895V61.367L50,72.879L26.315,61.367z"/>
<path display="none" fill="#F25F58" d="M72.756,9.991H28.28c-6.041,0-10.937,4.892-10.937,10.937v56.175v0.004
	c0,6.04,4.896,10.937,10.937,10.937h44.475c6.045,0,10.94-4.896,10.94-10.937v-0.004V20.928C83.695,14.883,78.8,9.991,72.756,9.991z
	 M38.055,76.733c0,1.497-1.216,2.713-2.716,2.713h-7.696c-1.5,0-2.716-1.216-2.716-2.713v-2.72c0-1.497,1.216-2.712,2.716-2.712
	h7.696c1.5,0,2.716,1.216,2.716,2.712C38.055,74.013,38.055,76.733,38.055,76.733z M38.055,62.523c0,1.5-1.216,2.716-2.716,2.716
	h-7.696c-1.5,0-2.716-1.216-2.716-2.716v-2.716c0-1.497,1.216-2.716,2.716-2.716h7.696c1.5,0,2.716,1.22,2.716,2.716
	C38.055,59.807,38.055,62.523,38.055,62.523z M38.055,48.313c0,1.5-1.216,2.721-2.716,2.721h-7.696c-1.5,0-2.716-1.22-2.716-2.721
	V45.6c0-1.5,1.216-2.716,2.716-2.716h7.696c1.5,0,2.716,1.216,2.716,2.716C38.055,45.6,38.055,48.313,38.055,48.313z M56.902,76.733
	c0,1.497-1.22,2.713-2.716,2.713h-7.692c-1.505,0-2.721-1.216-2.721-2.713v-2.72c0-1.497,1.216-2.712,2.721-2.712h7.692
	c1.497,0,2.716,1.216,2.716,2.712V76.733z M56.902,62.523c0,1.5-1.22,2.716-2.716,2.716h-7.692c-1.505,0-2.721-1.216-2.721-2.716
	v-2.716c0-1.497,1.216-2.716,2.721-2.716h7.692c1.497,0,2.716,1.22,2.716,2.716V62.523z M56.902,48.313
	c0,1.5-1.22,2.721-2.716,2.721h-7.692c-1.505,0-2.721-1.22-2.721-2.721V45.6c0-1.5,1.216-2.716,2.721-2.716h7.692
	c1.497,0,2.716,1.216,2.716,2.716V48.313z M75.749,76.733c0,1.497-1.216,2.713-2.716,2.713h-7.692c-1.501,0-2.716-1.216-2.716-2.713
	v-2.72c0-1.497,1.216-2.712,2.716-2.712h7.692c1.5,0,2.716,1.216,2.716,2.712V76.733z M75.749,62.523c0,1.5-1.216,2.716-2.716,2.716
	h-7.692c-1.501,0-2.716-1.216-2.716-2.716v-2.716c0-1.497,1.216-2.716,2.716-2.716h7.692c1.5,0,2.716,1.22,2.716,2.716V62.523z
	 M75.749,48.313c0,1.5-1.216,2.721-2.716,2.721h-7.692c-1.501,0-2.716-1.22-2.716-2.721V45.6c0-1.5,1.216-2.716,2.716-2.716h7.692
	c1.5,0,2.716,1.216,2.716,2.716V48.313z M75.848,33.604c0,1.5-1.216,2.716-2.716,2.716h-45.49c-1.5,0-2.716-1.216-2.716-2.716
	V21.611c0-1.5,1.216-2.716,2.716-2.716h45.49c1.5,0,2.716,1.216,2.716,2.716V33.604z"/>
<g display="none">
	<polygon display="inline" fill="#F25F58" points="78.73,9.3 67.956,12.443 73.193,26.658 83.517,23.665 	"/>
	<polygon display="inline" fill="#F25F58" points="61.373,14.238 47.306,18.277 47.606,18.877 50.299,26.208 52.693,32.493 
		66.759,28.453 	"/>
	<polygon display="inline" fill="#F25F58" points="40.872,20.073 28.453,23.665 33.84,37.88 46.259,34.289 43.117,26.208 	"/>
	<polygon display="inline" fill="#F25F58" points="22.018,25.46 11.693,28.453 16.482,42.818 27.256,39.676 	"/>
	<path display="inline" fill="#F25F58" d="M16.482,42.818v43.094c0,2.653,2.135,4.788,4.788,4.788h62.247
		c2.653,0,4.79-2.135,4.79-4.788V42.818H16.482z M78.73,66.759H26.058V52.395h52.671L78.73,66.759L78.73,66.759z"/>
</g>
<path fill="#F25F58" d="M51.004,11.923h-2.007c-22.088,0-41.164,14.21-41.164,31.881c0,10.136,5.957,18.944,15.19,24.842
	l-0.01,0.075l-5.965,15.936c-0.65,1.738,0.087,2.327,1.638,1.31l17.571-11.525c3.769,0.921,9.664,1.577,13.744,1.577h1.004
	c22.088,0,41.164-14.375,41.164-32.048S73.092,11.923,51.004,11.923z"/>
</svg>
