<?xml version="1.0" encoding="utf-8"?>
<!-- Generator: Adobe Illustrator 17.0.0, SVG Export Plug-In . SVG Version: 6.00 Build 0)  -->
<!DOCTYPE svg PUBLIC "-//W3C//DTD SVG 1.1//EN" "http://www.w3.org/Graphics/SVG/1.1/DTD/svg11.dtd">
<svg version="1.1" id="Layer_1" xmlns="http://www.w3.org/2000/svg" xmlns:xlink="http://www.w3.org/1999/xlink" x="0px" y="0px"
	 width="100px" height="40px" viewBox="0 0 100 40" enable-background="new 0 0 100 40" xml:space="preserve">
<g>
	<path fill="#FFFFFF" stroke="#B7DAE8" stroke-width="8" stroke-miterlimit="10" d="M50.172,32.64"/>
</g>
<g>
	<path fill="#FF6B59" d="M23.971,23.882l-0.508-0.29c-2.911-1.662-4.719-4.771-4.719-8.112c0-5.151,4.191-9.342,9.342-9.342
		c2.806,0,5.438,1.245,7.222,3.417l0.662,0.807l-0.755,0.721c-2.948,2.813-4.842,6.576-5.333,10.595l-0.12,0.983l-0.99,0.006
		c-1.49,0.009-2.927,0.334-4.272,0.966L23.971,23.882z M28.086,8.388c-3.911,0-7.092,3.181-7.092,7.092
		c0,2.352,1.182,4.552,3.117,5.866c1.178-0.485,2.409-0.782,3.677-0.887c0.657-3.811,2.433-7.374,5.087-10.21
		C31.575,9.056,29.878,8.388,28.086,8.388z"/>
</g>
<g>
	<path fill="#3297D7" d="M83.953,37.007l-3.404-1.172c0.333-0.965,0.494-2.235,0.494-3.881c0-6.331-5.151-11.483-11.483-11.483
		c-1.169,0-2.322,0.175-3.426,0.519l-1.819,0.567l-0.463-1.849c-1.892-7.556-8.66-12.833-16.46-12.833
		c-8.562,0-15.802,6.398-16.84,14.883l-0.192,1.572l-1.584,0.009c-5.215,0.031-9.457,4.297-9.457,9.512
		c0,0.994,0.154,1.978,0.459,2.922l-3.426,1.105c-0.42-1.302-0.633-2.657-0.633-4.027c0-6.667,5.031-12.21,11.496-13.012
		c1.879-9.543,10.303-16.564,20.177-16.564c8.851,0,16.607,5.608,19.442,13.841c0.896-0.164,1.807-0.246,2.725-0.246
		c8.317,0,15.083,6.766,15.083,15.082C84.643,34.005,84.417,35.658,83.953,37.007z"/>
</g>
<g>
	<path fill="#FF6B59" d="M83.758,37.761c-0.972-0.376-2.286-0.76-3.478-1.031l0.554-2.137c1.241,0.282,2.502,0.604,3.522,0.909
		L83.758,37.761z M16.494,37.163l-0.564-1.83c1.541-0.466,3.099-0.837,5.105-1.244l0.447,2.205
		C19.544,36.519,18.068,36.818,16.494,37.163z M74.829,35.713c-1.675-0.275-3.458-0.529-5.301-0.754l0.272-2.233
		c1.874,0.229,3.688,0.486,5.394,0.767L74.829,35.713z M26.744,35.38l-0.33-2.225c1.724-0.255,3.541-0.486,5.403-0.687l0.241,2.237
		C30.227,34.903,28.439,35.13,26.744,35.38z M64.195,34.403c-1.76-0.153-3.561-0.282-5.353-0.381l0.125-2.246
		c1.815,0.101,3.64,0.23,5.423,0.386L64.195,34.403z M37.4,34.222l-0.166-2.244c1.794-0.132,3.619-0.238,5.426-0.314l0.094,2.248
		C40.971,33.987,39.17,34.092,37.4,34.222z M53.481,33.81c-1.806-0.043-3.593-0.054-5.363-0.037l-0.022-2.25
		c1.795-0.018,3.607-0.006,5.439,0.037L53.481,33.81z"/>
</g>
</svg>
