<?xml version="1.0" encoding="utf-8"?>
<!-- Generator: Adobe Illustrator 17.0.0, SVG Export Plug-In . SVG Version: 6.00 Build 0)  -->
<!DOCTYPE svg PUBLIC "-//W3C//DTD SVG 1.1//EN" "http://www.w3.org/Graphics/SVG/1.1/DTD/svg11.dtd">
<svg version="1.1" id="Ebene_1" xmlns="http://www.w3.org/2000/svg" xmlns:xlink="http://www.w3.org/1999/xlink" x="0px" y="0px"
	 width="100px" height="100px" viewBox="0 0 100 100" enable-background="new 0 0 100 100" xml:space="preserve">
<g display="none">
	<path display="inline" fill="#F25F58" d="M83.079,65.444h-13.55c-5.531,4.475-12.267,7.11-19.531,7.11
		c-7.262,0-13.996-2.636-19.528-7.11H16.922c-5.588,0-10.16,4.57-10.16,10.159V97h86.476V75.604
		C93.236,70.015,88.664,65.444,83.079,65.444z"/>
	<path display="inline" fill="#F25F58" d="M49.997,3C35.131,3,23.078,15.771,23.078,33.443c0,17.673,12.053,32.001,26.919,32.001
		c14.871,0,26.923-14.328,26.923-32.001C76.92,15.772,64.868,3,49.997,3z"/>
</g>
<path display="none" fill="#F25F58" d="M94.077,79.619C88.979,91.841,77.026,93.983,73.12,93.983c-1.147,0-19.01,0.947-44.688-23.41
	C7.767,50.971,5.242,29.892,5.022,25.887C4.808,21.986,5.925,12.2,19.387,4.929c1.668-0.901,4.975-1.3,5.829-0.446
	c0.379,0.379,11.678,18.972,11.975,19.588c0.297,0.615,0.446,1.221,0.446,1.815c0,0.849-0.605,1.911-1.816,3.185
	c-1.21,1.274-2.526,2.442-3.949,3.503c-1.423,1.062-2.739,2.187-3.95,3.376c-1.21,1.188-1.815,2.166-1.815,2.93
	c0.082,1.983,1.707,9.086,14.086,19.963C52.574,69.723,58.538,72.788,59.111,73c0.574,0.212,1.051,0.317,1.433,0.317
	c0.765,0,1.742-0.604,2.931-1.814c1.188-1.211,5.185-6.689,6.459-7.9c1.274-1.209,2.336-1.814,3.186-1.814
	c0.594,0,1.199,0.148,1.814,0.445c0.616,0.297,19.233,11.191,19.589,11.555C95.489,74.779,94.807,77.869,94.077,79.619"/>
<path fill="#F25F58" d="M50,14L0,40.315L50,66.63l28.946-14.637c0,0,0,13.267,0,19.899c0,10.527,10.527,10.527,10.527,10.527v-5.263
	c0,0-5.263-0.301-5.263-5.265c0-7.895,0-22.861,0-22.861L100,40.315L50,14z"/>
<path fill="#F25F58" d="M26.315,61.367v10.526c0,2.615,1.711,6.118,5.263,7.895L50,87.682l15.789-7.895
	c3.553-1.776,8.143-5.292,7.895-7.895V61.367L50,72.879L26.315,61.367z"/>
</svg>
