<?xml version="1.0" encoding="utf-8"?>
<!-- Generator: Adobe Illustrator 17.0.0, SVG Export Plug-In . SVG Version: 6.00 Build 0)  -->
<!DOCTYPE svg PUBLIC "-//W3C//DTD SVG 1.1//EN" "http://www.w3.org/Graphics/SVG/1.1/DTD/svg11.dtd">
<svg version="1.1" id="Ebene_1" xmlns="http://www.w3.org/2000/svg" xmlns:xlink="http://www.w3.org/1999/xlink" x="0px" y="0px"
	 width="100px" height="100px" viewBox="0 0 100 100" enable-background="new 0 0 100 100" xml:space="preserve">
<g>
	<path fill="#F25F58" d="M83.079,65.444h-13.55c-5.531,4.475-12.267,7.11-19.531,7.11c-7.262,0-13.996-2.636-19.528-7.11H16.922
		c-5.588,0-10.16,4.57-10.16,10.159V97h86.476V75.604C93.236,70.015,88.664,65.444,83.079,65.444z"/>
	<path fill="#F25F58" d="M49.997,3C35.131,3,23.078,15.771,23.078,33.443c0,17.673,12.053,32.001,26.919,32.001
		c14.871,0,26.923-14.328,26.923-32.001C76.92,15.772,64.868,3,49.997,3z"/>
</g>
</svg>
